# xmcd CD database file
#
# Track frame offsets:
#	150
#	4284
#	23529
#	51613
#	53993
#	84450
#	112078
#	137376
#	155408
#	158400
#	168964
#	196007
#
# Disc length: 2993 seconds
#
# Revision: 1
# Processed by: cddbd v1.5.2PL0 Copyright (c) Steve Scherf et al.
# Submitted via: cdripper 1.0.8
#
DISCID=8d0baf0c
DTITLE=Piotr Zaczek - Balboo
DYEAR=2009
DGENRE=Jazz
TTITLE0=NYC
TTITLE1=SORBET Z DZIKA
TTITLE2=SADDI ALA SADI
TTITLE3=NYC INTRO 1
TTITLE4=NIKOLAS
TTITLE5=DAMBI BALBOO
TTITLE6=LISTEN
TTITLE7=CREATE
TTITLE8=NYC INTRO 2
TTITLE9=ROMEK
TTITLE10=NIEZBABRE
TTITLE11=ABSYNT
EXTD=YEAR: 2009
EXTT0=
EXTT1=
EXTT2=
EXTT3=
EXTT4=
EXTT5=
EXTT6=
EXTT7=
EXTT8=
EXTT9=
EXTT10=
EXTT11=
PLAYORDER=
